#!OML:ASF H:\Terrain\Patient Classification 1\Animal1\Tuesday\Animal1.ASF
:FULLY-SPECIFIED
:DEGREES
1260
root 6.5003 16.3119 -3.36859 -0.146213 -46.2656 -2.21662
lowerback -6.66814 -0.85904 -1.35298
upperback -11.8418 -1.3393 1.83753
thorax -8.70631 -0.579239 2.73657
lowerneck -0.935772 3.10486 -1.76167
upperneck 11.9327 3.36851 7.82633
head 3.91539 1.88695 3.07588
rclavicle -2.18663e-015 -3.97569e-015
rhumerus -22.5871 -28.1818 1.80834
rradius 30.121
rwrist -68.3707
rhand 22.104 8.66259
rfingers 7.12502
rthumb 46.4898 -14.2252
lclavicle -2.18663e-015 -3.97569e-015
lhumerus -20.0701 39.8452 -1.89768
lradius 31.0125
lwrist 17.616
lhand 72.1307 54.2733
lfingers 7.12502
lthumb 72.6945 339.875
rfemur -17.5358 22.4145 15.7882
rtibia 22.708
rfoot -12.1373 -17.398
rtoes -10.3492
lfemur 7.42071 -7.33016 -24.6088
ltibia 27.8193
lfoot -14.3837 15.436
ltoes -9.1965
1261
root 6.51346 16.3151 -3.36755 -0.0904468 -46.3303 -2.33658
lowerback -6.70602 -0.808152 -1.25541
upperback -11.7458 -1.2667 1.865
thorax -8.58066 -0.55126 2.70682
lowerneck -0.545394 3.13761 -1.78149
upperneck 11.4136 3.45247 7.77904
head 3.65117 1.9131 3.03398
rclavicle 5.76476e-015 -2.5842e-014
rhumerus -22.862 -28.0925 2.1585
rradius 30.1204
rwrist -68.7747
rhand 23.42 8.75161
rfingers 7.12502
rthumb 47.7067 -13.5969
lclavicle 5.76476e-015 -2.5842e-014
lhumerus -20.4595 40.9557 -2.2057
lradius 30.9711
lwrist 17.2123
lhand 74.9479 56.7778
lfingers 7.12502
lthumb 71.156 335.135
rfemur -17.3785 22.312 15.8652
rtibia 22.4583
rfoot -11.9538 -17.5738
rtoes -12.4072
lfemur 7.3169 -7.45345 -24.5787
ltibia 27.9561
lfoot -15.4729 14.9452
ltoes -3.20263
1262
root 6.52893 16.3156 -3.36872 0.0863218 -46.4363 -2.5588
lowerback -6.62183 -0.713326 -1.09237
upperback -11.7034 -1.13754 1.90601
thorax -8.58962 -0.498116 2.65915
lowerneck -0.501734 3.13576 -1.81999
upperneck 11.2825 3.46441 7.74269
head 3.59581 1.91406 3.02271
rclavicle 1.19867e-013 3.00165e-014
rhumerus -23.4544 -27.7462 2.81948
rradius 30.1612
rwrist -69.573
rhand 21.8724 8.54117
rfingers 7.12502
rthumb 46.2752 -14.4379
lclavicle 1.19867e-013 3.00165e-014
lhumerus -21.0321 42.1279 -2.77609
lradius 30.8494
lwrist 16.496
lhand 75.5933 57.9735
lfingers 7.12502
lthumb 70.764 334.845
rfemur -17.2112 22.3771 15.9851
rtibia 21.987
rfoot -11.4342 -17.9092
rtoes -14.3806
lfemur 7.11323 -7.3736 -24.4441
ltibia 28.2258
lfoot -15.7737 15.0217
ltoes -2.8859
1263
root 6.54445 16.3154 -3.37315 0.576602 -46.4998 -3.15165
lowerback -6.49079 -0.612435 -0.668919
upperback -11.6713 -1.00033 1.98119
thorax -8.63942 -0.460872 2.50305
lowerneck -0.906358 3.11419 -1.82737
upperneck 11.6115 3.41747 7.73121
head 3.7927 1.90147 3.04349
rclavicle 4.05521e-014 3.57812e-014
rhumerus -24.3844 -27.6843 3.76102
rradius 30.1483
rwrist -70.2765
rhand 19.1897 8.30616
rfingers 7.12502
rthumb 43.7795 -15.6585
lclavicle 4.05521e-014 3.57812e-014
lhumerus -21.7807 42.9713 -3.69568
lradius 30.5762
lwrist 16.0241
lhand 74.1644 57.1769
lfingers 7.12502
lthumb 71.6132 337.423
rfemur -17.1261 22.5106 16.3551
rtibia 21.5694
rfoot -11.2298 -17.8189
rtoes -14.0881
lfemur 6.89871 -7.2189 -23.9851
ltibia 28.4735
lfoot -15.6928 15.185
ltoes -6.23042
1264
root 6.55742 16.3167 -3.37694 0.936345 -46.457 -3.51629
lowerback -6.29571 -0.598211 -0.466512
upperback -11.6974 -0.976843 2.06007
thorax -8.78397 -0.460379 2.47841
lowerneck -1.10277 3.11822 -1.76109
upperneck 11.7445 3.4262 7.60019
head 3.87983 1.90882 2.99697
rclavicle 3.48867e-014 3.97569e-014
rhumerus -25.4144 -28.5722 5.074
rradius 29.8785
rwrist -69.907
rhand 15.905 8.1242
rfingers 7.12502
rthumb 40.7028 -16.8859
lclavicle 3.48867e-014 3.97569e-014
lhumerus -22.9864 43.0591 -5.02128
lradius 30.3161
lwrist 15.8195
lhand 71.9126 53.6389
lfingers 7.12502
lthumb 72.8005 339.854
rfemur -17.0804 22.4753 16.5528
rtibia 21.1969
rfoot -11.0761 -17.6394
rtoes -13.4424
lfemur 6.64582 -7.11625 -23.677
ltibia 28.6838
lfoot -15.8635 15.2086
ltoes -7.92955
1265
root 6.56976 16.3204 -3.38136 1.15412 -46.3664 -3.57447
lowerback -6.18615 -0.64513 -0.505535
upperback -11.7207 -1.03392 2.13867
thorax -8.86976 -0.480027 2.58773
lowerneck -1.04316 3.13546 -1.76575
upperneck 11.503 3.48578 7.41038
head 3.7811 1.92764 2.92294
rclavicle 2.24627e-014 -1.11319e-014
rhumerus -26.5074 -29.1701 6.50744
rradius 29.6949
rwrist -69.9802
rhand 11.9032 7.86365
rfingers 7.12502
rthumb 36.9291 -18.2191
lclavicle 2.24627e-014 -1.11319e-014
lhumerus -24.5555 42.7263 -6.70922
lradius 30.0185
lwrist 15.6262
lhand 68.4572 49.2236
lfingers 7.12502
lthumb 74.1807 346.155
rfemur -17.1749 22.3354 16.4858
rtibia 20.8828
rfoot -11.4019 -17.4459
rtoes -12.3992
lfemur 6.29118 -7.25994 -23.6344
ltibia 28.8278
lfoot -16.4545 15.0533
ltoes -4.08367
1266
root 6.58063 16.3257 -3.38335 1.57135 -46.288 -3.81807
lowerback -6.3149 -0.643818 -0.31827
upperback -11.6277 -1.02903 2.18298
thorax -8.69179 -0.492874 2.52426
lowerneck -1.11213 3.12637 -1.74415
upperneck 11.1761 3.51252 7.22848
head 3.67985 1.93338 2.8476
rclavicle -2.45499e-014 -4.85035e-014
rhumerus -27.897 -29.3744 8.10035
rradius 29.5595
rwrist -70.2332
rhand 7.48317 7.37793
rfingers 7.12502
rthumb 32.7355 -19.6777
lclavicle -2.45499e-014 -4.85035e-014
lhumerus -26.1547 42.941 -8.64596
lradius 29.6319
lwrist 14.6166
lhand 63.1508 46.6897
lfingers 7.12502
lthumb 74.9771 362.748
rfemur -17.4602 22.3169 16.5203
rtibia 20.845
rfoot -12.0741 -17.4094
rtoes -11.2453
lfemur 5.98208 -7.37757 -23.4675
ltibia 28.7956
lfoot -16.325 15.2954
ltoes -3.93958
1267
root 6.58839 16.3336 -3.38356 1.88003 -46.2553 -3.86608
lowerback -6.41338 -0.597674 -0.251525
upperback -11.5675 -0.970421 2.1231
thorax -8.57091 -0.473381 2.41866
lowerneck -1.12543 3.0691 -1.72405
upperneck 10.7251 3.4615 7.22946
head 3.52719 1.90489 2.82814
rclavicle 6.27166e-014 2.08724e-014
rhumerus -29.6132 -29.9651 10.151
rradius 29.3057
rwrist -69.3794
rhand 2.81588 6.34035
rfingers 7.12502
rthumb 28.2846 -21.5442
lclavicle 6.27166e-014 2.08724e-014
lhumerus -27.7088 43.2916 -10.5961
lradius 29.3695
lwrist 12.8142
lhand 56.292 44.8122
lfingers 7.12502
lthumb 73.4032 384.675
rfemur -17.8763 22.5099 16.3825
rtibia 21.035
rfoot -12.0692 -17.8777
rtoes -11.9954
lfemur 5.73353 -7.30412 -23.3786
ltibia 28.6061
lfoot -15.7285 15.4803
ltoes -6.41385
1268
root 6.59594 16.3411 -3.38275 1.5658 -46.2717 -2.97276
lowerback -6.44847 -0.583309 -0.880304
upperback -11.5832 -0.958964 1.89912
thorax -8.56515 -0.425992 2.53193
lowerneck -1.02721 3.04013 -1.74828
upperneck 10.1274 3.44312 7.40517
head 3.29942 1.89306 2.86988
rclavicle 9.34288e-015 -2.5842e-015
rhumerus -31.3935 -30.1999 12.1838
rradius 29.2006
rwrist -69.0724
rhand -2.7597 5.50183
rfingers 7.12502
rthumb 22.9446 -23.1528
lclavicle 9.34288e-015 -2.5842e-015
lhumerus -29.3489 43.2406 -12.5721
lradius 29.2351
lwrist 11.037
lhand 48.6351 43.3951
lfingers 7.12502
lthumb 69.0338 401.986
rfemur -18.4065 22.6762 15.4839
rtibia 21.2518
rfoot -12.0227 -18.0485
rtoes -11.8594
lfemur 5.4162 -7.36073 -23.9901
ltibia 28.3734
lfoot -16.0833 14.8768
ltoes -1.42479
1269
root 6.60399 16.3441 -3.37848 1.14527 -46.2443 -2.12364
lowerback -6.34755 -0.612879 -1.4735
upperback -11.5671 -1.00324 1.70897
thorax -8.60035 -0.406214 2.66369
lowerneck -0.965188 3.11569 -1.61348
upperneck 9.61325 3.56906 7.43429
head 3.1054 1.95476 2.83962
rclavicle -1.23246e-014 -2.74323e-014
rhumerus -33.102 -29.8051 13.9713
rradius 29.1609
rwrist -69.2568
rhand -8.74334 5.35978
rfingers 7.12502
rthumb 17.1935 -23.8996
lclavicle -1.23246e-014 -2.74323e-014
lhumerus -31.2545 43.1638 -14.8631
lradius 29.0739
lwrist 9.09734
lhand 41.8044 43.8915
lfingers 7.12502
lthumb 63.873 412.84
rfemur -18.749 22.6696 14.7
rtibia 21.4425
rfoot -12.417 -17.9443
rtoes -10.4246
lfemur 5.24693 -7.4835 -24.6212
ltibia 28.1872
lfoot -16.4574 14.4459
ltoes 1.9404
1270
root 6.61077 16.3446 -3.37759 1.10239 -46.1512 -2.14866
lowerback -5.86603 -0.597575 -1.52345
upperback -11.5464 -0.981168 1.71151
thorax -8.85641 -0.38457 2.70305
lowerneck -1.03549 3.11228 -1.66506
upperneck 9.35342 3.57995 7.47712
head 3.02789 1.95817 2.85779
rclavicle -9.5516e-014 -1.66979e-014
rhumerus -34.8637 -28.8827 15.8958
rradius 29.1384
rwrist -69.3297
rhand -14.5094 5.23984
rfingers 7.12502
rthumb 11.6379 -24.417
lclavicle -9.5516e-014 -1.66979e-014
lhumerus -33.2467 43.4057 -17.3015
lradius 28.8098
lwrist 6.43375
lhand 35.6398 45.5671
lfingers 7.12502
lthumb 58.6931 420.65
rfemur -18.7265 22.7551 14.7148
rtibia 21.5923
rfoot -12.0963 -18.4461
rtoes -11.7656
lfemur 5.36333 -7.56491 -24.5965
ltibia 28.0426
lfoot -16.4922 14.2544
ltoes 1.22919
1271
root 6.61856 16.3475 -3.38012 1.44053 -46.1304 -2.48857
lowerback -5.48782 -0.534745 -1.33506
upperback -11.6088 -0.894673 1.7859
thorax -9.15255 -0.348692 2.68437
lowerneck -1.07728 2.99983 -1.95409
upperneck 9.10054 3.44877 7.57328
head 2.95153 1.88391 2.9342
rclavicle -8.94531e-016 -6.36111e-015
rhumerus -36.299 -26.1469 17.0979
rradius 29.3957
rwrist -71.5035
rhand -20.7047 4.51955
rfingers 7.12502
rthumb 5.6595 -25.3849
lclavicle -8.94531e-016 -6.36111e-015
lhumerus -35.2731 43.7596 -19.8673
lradius 28.3734
lwrist 3.34427
lhand 28.8509 47.4541
lfingers 7.12502
lthumb 52.6709 427.153
rfemur -18.8386 22.9755 14.8754
rtibia 21.6079
rfoot -11.1532 -18.9821
rtoes -14.4851
lfemur 5.29875 -7.66836 -24.3196
ltibia 27.9224
lfoot -16.5284 14.0919
ltoes 1.18468
1272
root 6.62675 16.3479 -3.37801 1.92023 -46.1879 -2.78635
lowerback -5.48167 -0.491355 -1.04364
upperback -11.6649 -0.839369 1.77126
thorax -9.22459 -0.347594 2.50616
lowerneck -0.903563 2.96914 -1.91937
upperneck 8.62857 3.43105 7.61394
head 2.75993 1.86812 2.92184
rclavicle 5.37713e-014 3.02153e-014
rhumerus -37.1724 -20.7664 16.609
rradius 29.8361
rwrist -76.8961
rhand -27.3506 4.07277
rfingers 7.12502
rthumb -0.758708 -25.9056
lclavicle 5.37713e-014 3.02153e-014
lhumerus -37.3424 44.3722 -22.8265
lradius 27.6924
lwrist 0.165655
lhand 23.0076 50.0077
lfingers 7.12502
lthumb 47.3259 432.529
rfemur -19.1257 23.0706 14.9416
rtibia 21.472
rfoot -10.8205 -19.0292
rtoes -15.5328
lfemur 5.0535 -7.65269 -24.095
ltibia 27.8464
lfoot -16.0879 14.5479
ltoes -3.52527
1273
root 6.63154 16.349 -3.37125 2.06662 -46.2339 -2.77939
lowerback -5.52771 -0.439712 -0.921908
upperback -11.6337 -0.776992 1.64449
thorax -9.16683 -0.334919 2.29987
lowerneck -0.970245 2.98375 -1.7986
upperneck 8.42623 3.44747 7.75598
head 2.70331 1.88263 2.9444
rclavicle -8.95525e-014 -2.98177e-014
rhumerus -38.1387 -16.6369 16.3783
rradius 29.7281
rwrist -80.7434
rhand -33.5222 4.90067
rfingers 7.12502
rthumb -6.71836 -24.9727
lclavicle -8.95525e-014 -2.98177e-014
lhumerus -39.6963 46.2442 -26.5117
lradius 26.7644
lwrist -3.89515
lhand 18.1573 53.4036
lfingers 7.12502
lthumb 42.8148 437.715
rfemur -19.2499 23.1168 14.8378
rtibia 21.3016
rfoot -11.0543 -18.8421
rtoes -13.8268
lfemur 4.93625 -7.56472 -24.0974
ltibia 27.7893
lfoot -15.7923 14.8479
ltoes -7.29642
